<svg width="96" height="96" xmlns="http://www.w3.org/2000/svg" xmlns:xlink="http://www.w3.org/1999/xlink" xml:space="preserve" overflow="hidden"><defs><clipPath id="clip0"><rect x="482" y="432" width="96" height="96"/></clipPath></defs><g clip-path="url(#clip0)" transform="translate(-482 -432)"><path d="M530 476C525 476 521 472 521 467 521 462 525 458 530 458 535 458 539 462 539 467 539 472 535 476 530 476ZM530 446C523.1 446 516.6 449.4 512.7 455.2 508.8 460.9 508 468.2 510.5 474.7L520 495.7 528.2 512.9C528.5 513.6 529.2 514 530 514 530.8 514 531.5 513.6 531.8 512.9L540 495.7 549.5 474.7C552 468.2 551.2 460.9 547.3 455.2 543.4 449.4 536.9 446 530 446Z"/></g></svg>